<?xml version="1.0" encoding="UTF-8"?><svg id="Layer_2" xmlns="http://www.w3.org/2000/svg" viewBox="0 0 232.73 157.82"><defs><style>.cls-1{fill:#fff;}</style></defs><g id="Layer_1-2"><g><g><rect class="cls-1" x="-10.69" y="41.49" width="104.8" height=".44" transform="translate(-17.28 41.71) rotate(-45)"/><path class="cls-1" d="M4.81,83.41c-1.15,0-2.3-.44-3.18-1.32l-.31-.31C.48,80.94,0,79.8,0,78.6c0-1.19,.47-2.34,1.32-3.18L75.42,1.32c1.76-1.76,4.61-1.76,6.36,0l.31,.31c.84,.84,1.32,1.99,1.32,3.18s-.47,2.34-1.32,3.18L7.99,82.09c-.88,.88-2.03,1.32-3.18,1.32Z"/></g><g><rect class="cls-1" x="41.49" y="63.72" width=".44" height="104.8" transform="translate(-69.89 63.5) rotate(-45)"/><path class="cls-1" d="M78.6,157.82c-1.15,0-2.3-.44-3.18-1.32L1.32,82.4c-1.76-1.76-1.76-4.61,0-6.36l.31-.31c1.76-1.76,4.61-1.76,6.36,0l74.1,74.1c1.76,1.76,1.76,4.61,0,6.36l-.31,.31c-.88,.88-2.03,1.32-3.18,1.32Z"/></g><g><rect class="cls-1" x="5.2" y="78.69" width="223.03" height=".44"/><rect class="cls-1" x=".7" y="74.19" width="232.03" height="9.44" rx="4.5" ry="4.5"/></g></g></g></svg>