<?xml version="1.0" encoding="UTF-8"?><svg id="Layer_1" xmlns="http://www.w3.org/2000/svg" viewBox="0 0 5.55 5.55"><defs><style>.cls-1{fill:#fff;}</style></defs><rect class="cls-1" y="0" width="5.55" height="5.55"/><path id="iconmonstr-instagram-11" d="M2.75,1.28c.49,0,.55,0,.74,.01,.38-.04,.71,.24,.75,.62,0,.04,0,.09,0,.13,0,.19,.01,.25,.01,.74s0,.55-.01,.74c.04,.38-.24,.71-.62,.75-.04,0-.09,0-.13,0-.19,0-.25,.01-.74,.01s-.55,0-.74-.01c-.38,.04-.71-.24-.75-.62,0-.04,0-.09,0-.13,0-.19-.01-.25-.01-.74s0-.55,.01-.74c-.04-.38,.24-.71,.62-.75,.04,0,.09,0,.13,0,.19,0,.25-.01,.74-.01Zm0-.33c-.5,0-.56,0-.75,.01-.56-.03-1.03,.4-1.06,.95,0,.04,0,.07,0,.11,0,.2-.01,.26-.01,.75s0,.56,.01,.75c-.03,.56,.4,1.03,.95,1.06,.04,0,.07,0,.11,0,.2,0,.26,.01,.75,.01s.56,0,.75-.01c.56,.03,1.03-.4,1.06-.95,0-.04,0-.07,0-.11,0-.19,.01-.26,.01-.75s0-.56-.01-.75c.03-.56-.4-1.03-.95-1.06-.04,0-.07,0-.11,0-.19,0-.26-.01-.75-.01Zm0,.89c-.52,0-.94,.42-.94,.94,0,.52,.42,.94,.94,.94s.94-.42,.94-.94h0c0-.52-.42-.94-.94-.94Zm0,1.55c-.34,0-.61-.27-.61-.61s.27-.61,.61-.61,.61,.27,.61,.61c0,.34-.27,.61-.61,.61h0Zm.98-1.81c-.12,0-.22,.1-.22,.22s.1,.22,.22,.22,.22-.1,.22-.22h0c0-.12-.1-.22-.22-.22Z"/></svg>